<svg width="2567" height="459" viewBox="0 0 2567 459" fill="none" xmlns="http://www.w3.org/2000/svg">
<g clip-path="url(#clip0_203_12)">
<path fill-rule="evenodd" clip-rule="evenodd" d="M32.0579 255.138C46.4015 211.058 72.2504 154.566 118.337 108.479C208.697 18.1187 340.045 4.7578 343.369 4.4234C345.131 4.24632 348.778 4.06922 353.073 5.52154C357.975 7.17944 362.245 10.5094 365.05 14.8538C369.834 22.045 396.735 67.2848 360.66 121.946C358.869 124.661 356.712 127.307 354.318 129.864C354.61 132.626 354.4 135.489 353.622 138.33C349.286 154.167 343.679 170.778 336.421 187.393C323.754 216.401 305.916 245.727 280.751 270.891C233.666 317.978 171.847 339.605 123.561 349.693C99.1905 354.785 77.6568 357.064 62.169 358.072C60.4927 358.182 58.8847 358.276 57.3499 358.359C56.6302 364.046 50.2444 421.006 50.2444 430.857C50.2444 443.543 39.9608 453.826 27.2751 453.826C14.5902 453.826 4.30664 443.541 4.30664 430.857C4.30664 417.738 6.97816 392.511 9.39192 372.053C14.0844 332.28 19.6211 293.355 32.0579 255.138ZM322.318 96.6415C334.421 78.3049 334.242 62.6487 331.838 52.5615C296.779 58.8782 211.976 79.8042 150.82 140.961C111.694 180.087 88.8175 229.164 75.7403 269.35C70.4286 285.677 66.8073 300.306 64.388 311.856C77.6848 310.804 94.9625 308.737 114.168 304.727C158.268 295.514 210.141 276.537 248.267 238.409C267.779 218.9 282.331 195.741 293.146 171.668C270.719 183.615 246.788 194.318 229.775 199.989C217.739 204.002 204.732 197.498 200.722 185.464C196.708 173.429 203.214 160.422 215.247 156.41C230.74 151.247 255.64 140.021 278.51 127.341C289.863 121.047 300.24 114.656 308.399 108.788C317.205 102.453 321.266 98.2372 322.318 96.6415Z" fill="url(#paint0_linear_203_12)" stroke="url(#paint1_linear_203_12)" stroke-width="8.61328" stroke-linejoin="round"/>
<path d="M857.561 447.74L761.76 291.002H660.393V447.74H573.967V34.9469H780.217C829.436 34.9469 867.424 45.5426 894.182 66.734C920.94 87.9255 934.319 118.345 934.319 157.994C934.319 186.9 926.115 211.851 909.709 232.847C893.303 253.844 871.135 267.662 843.205 274.303L954.826 447.74H857.561ZM847.307 161.51C847.307 121.861 821.916 102.037 771.135 102.037H660.393V223.912H773.479C797.697 223.912 816.057 218.443 828.557 207.506C841.057 196.568 847.307 181.236 847.307 161.51Z" fill="black"/>
<path d="M1138.81 453.6C1091.15 453.6 1054.53 439.488 1028.95 411.266C1003.36 383.043 990.568 341.881 990.568 287.779C990.568 235.435 1003.56 195.201 1029.53 167.076C1055.51 138.951 1092.33 124.888 1139.98 124.888C1185.49 124.888 1220.26 139.976 1244.28 170.152C1268.3 200.328 1280.31 244.517 1280.31 302.721V305.064H1076.99C1076.99 335.924 1082.71 359.215 1094.13 374.937C1105.56 390.66 1121.82 398.521 1142.91 398.521C1172.01 398.521 1190.37 385.924 1197.99 360.728L1275.63 367.467C1253.17 424.889 1207.56 453.6 1138.81 453.6ZM1138.81 176.744C1119.47 176.744 1104.58 183.482 1094.13 196.959C1083.68 210.435 1078.17 229.283 1077.58 253.502H1200.63C1199.06 227.916 1192.91 208.726 1182.17 195.933C1171.43 183.14 1156.97 176.744 1138.81 176.744Z" fill="black"/>
<path d="M1548.09 447.74V269.908C1548.09 214.244 1529.24 186.412 1491.54 186.412C1471.62 186.412 1455.56 194.957 1443.35 212.047C1431.14 229.137 1425.04 251.06 1425.04 277.818V447.74H1342.71V201.646C1342.71 184.654 1342.47 170.738 1341.98 159.898C1341.49 149.058 1340.96 139.342 1340.37 130.748H1418.89C1419.47 134.459 1420.25 144.371 1421.23 160.484C1422.21 176.597 1422.7 187.681 1422.7 193.736H1423.87C1435 169.517 1448.96 151.939 1465.76 141.002C1482.56 130.064 1502.58 124.595 1525.82 124.595C1559.41 124.595 1585.2 134.947 1603.16 155.65C1621.13 176.353 1630.12 206.627 1630.12 246.471V447.74H1548.09Z" fill="black"/>
<path d="M1914.6 447.74C1913.81 444.811 1912.89 437.437 1911.81 425.621C1910.74 413.805 1910.2 403.99 1910.2 396.178H1909.03C1891.26 434.459 1857.47 453.6 1807.66 453.6C1770.75 453.6 1742.23 439.195 1722.12 410.387C1702 381.578 1691.94 341.295 1691.94 289.537C1691.94 236.998 1702.54 196.422 1723.73 167.808C1744.92 139.195 1774.95 124.888 1813.81 124.888C1836.28 124.888 1855.66 129.576 1871.97 138.951C1888.28 148.326 1900.83 162.291 1909.62 180.845H1910.2L1909.62 128.697V12.9743H1991.94V378.6C1991.94 398.131 1992.72 421.178 1994.28 447.74H1914.6ZM1910.79 287.486C1910.79 253.306 1905.07 226.988 1893.65 208.531C1882.22 190.074 1865.38 180.845 1843.11 180.845C1821.04 180.845 1804.63 189.781 1793.89 207.652C1783.15 225.523 1777.78 252.818 1777.78 289.537C1777.78 361.412 1799.36 397.35 1842.53 397.35C1864.21 397.35 1881 387.828 1892.92 368.785C1904.83 349.742 1910.79 322.642 1910.79 287.486Z" fill="black"/>
<path d="M2075.72 73.6188V12.9743H2158.05V73.6188H2075.72ZM2075.72 447.74V130.748H2158.05V447.74H2075.72Z" fill="black"/>
<path d="M2543.6 288.951C2543.6 340.318 2529.34 380.602 2500.82 409.801C2472.31 439 2432.85 453.6 2382.46 453.6C2333.05 453.6 2294.28 438.951 2266.16 409.654C2238.03 380.357 2223.97 340.123 2223.97 288.951C2223.97 237.974 2238.03 197.887 2266.16 168.687C2294.28 139.488 2333.64 124.888 2384.22 124.888C2435.98 124.888 2475.48 139 2502.73 167.222C2529.97 195.445 2543.6 236.021 2543.6 288.951ZM2457.46 288.951C2457.46 251.256 2451.31 223.912 2439.01 206.92C2426.7 189.928 2408.83 181.431 2385.39 181.431C2335.39 181.431 2310.39 217.271 2310.39 288.951C2310.39 324.303 2316.5 351.207 2328.7 369.664C2340.91 388.121 2358.54 397.35 2381.58 397.35C2432.17 397.35 2457.46 361.217 2457.46 288.951Z" fill="black"/>
</g>
<defs>
<linearGradient id="paint0_linear_203_12" x1="-1.12051e-06" y1="246.909" x2="206.627" y2="1.24029e-06" gradientUnits="userSpaceOnUse">
<stop stop-color="#1B5E20"/>
<stop offset="0.5" stop-color="#2E7D32"/>
<stop offset="1" stop-color="#8BC34A"/>
</linearGradient>
<linearGradient id="paint1_linear_203_12" x1="-1.12051e-06" y1="246.909" x2="206.627" y2="1.24029e-06" gradientUnits="userSpaceOnUse">
<stop stop-color="#1B5E20"/>
<stop offset="0.5" stop-color="#2E7D32"/>
<stop offset="1" stop-color="#8BC34A"/>
</linearGradient>
<clipPath id="clip0_203_12">
<rect width="2567" height="458.7" fill="white"/>
</clipPath>
</defs>
</svg>
